<svg width="231" height="128" viewBox="0 0 231 128" fill="none" xmlns="http://www.w3.org/2000/svg">
<path d="M7.38901 86.6865H2V45.7598H7.38901V86.6865Z" fill="white"/>
<path d="M21.2249 57.4533V61.9001C22.4489 59.759 25.7879 56.7451 31.1769 56.7451C38.1029 56.7451 42.963 61.7024 42.963 69.5748V86.6867H37.6729V70.4971C37.6729 64.5681 34.7969 61.3566 30.0359 61.3566C24.9119 61.3566 21.2089 66.1657 21.2089 71.5677V86.6867H15.9189V57.4698H21.2089L21.2249 57.4533Z" fill="white"/>
<path d="M64.833 62.0978H58.32V86.6703H53.03V62.0978H47.228V57.4534H53.03V52.4961C53.03 47.6376 55.857 44.2778 60.882 44.2778C62.171 44.2778 63.394 44.3766 64.32 44.5907V49.0375C63.609 48.8893 62.584 48.8893 61.808 48.8893C59.659 48.8893 58.32 50.2727 58.32 52.6772V57.4863H64.833V62.1307V62.0978Z" fill="white"/>
<path d="M97.4469 72.0616C97.4469 80.8563 91.1329 87.3947 82.4709 87.3947C73.8089 87.3947 67.4438 80.8563 67.4438 72.0616C67.4438 63.2669 73.7589 56.7285 82.4709 56.7285C91.1819 56.7285 97.4469 63.2669 97.4469 72.0616ZM72.6179 72.0616C72.6179 78.1389 76.6189 82.7339 82.4709 82.7339C88.3219 82.7339 92.2569 78.1389 92.2569 72.0616C92.2569 65.9844 88.2559 61.3894 82.4709 61.3894C76.6849 61.3894 72.6179 65.9844 72.6179 72.0616Z" fill="white"/>
<path d="M157.354 72.0617C157.354 62.9706 163.354 56.3828 171.967 56.3828C175.917 56.3828 178.794 57.7662 180.579 60.1708V57.1074H189.704V87.049H180.579V83.9856C178.777 86.3902 175.917 87.7736 171.967 87.7736C163.354 87.7736 157.354 81.1858 157.354 72.0947V72.0617ZM180.744 72.0617C180.744 67.4667 177.868 64.1399 173.405 64.1399C168.941 64.1399 166.28 67.4667 166.28 72.0617C166.28 76.6567 169.057 79.9836 173.405 79.9836C177.752 79.9836 180.744 76.6567 180.744 72.0617Z" fill="white"/>
<path d="M196.597 57.0909H205.722V60.1542C207.524 57.7497 210.383 56.3662 214.334 56.3662C222.946 56.3662 228.947 62.954 228.947 72.0452C228.947 81.1363 222.946 87.7241 214.334 87.7241C210.383 87.7241 207.524 86.3407 205.722 83.9362V99.4669H196.597V57.0579V57.0909ZM220.037 72.0617C220.037 67.4667 217.277 64.1398 212.912 64.1398C208.548 64.1398 205.573 67.4667 205.573 72.0617C205.573 76.6566 208.449 79.9835 212.912 79.9835C217.376 79.9835 220.037 76.6566 220.037 72.0617Z" fill="white"/>
<path d="M116.259 45.4141L127.053 71.6335H127.516L138.311 45.4141H150.493V87.0325H140.906V61.1589H140.559L130.409 86.8019H124.177L114.027 61.0436H113.68V87.0325H104.109V45.4141H116.292H116.259Z" fill="white"/>
</svg>
